<?xml version="1.0" encoding="UTF-8" standalone="no"?>
<!DOCTYPE svg PUBLIC "-//W3C//DTD SVG 1.1//EN"
 "http://www.w3.org/Graphics/SVG/1.1/DTD/svg11.dtd">
<!-- Generated by graphviz version 2.28.0 (20110507.0327)
 -->
<!-- Title: models_diagram Pages: 1 -->
<svg width="1058pt" height="1042pt"
 viewBox="0.00 0.00 1058.00 1042.00" xmlns="http://www.w3.org/2000/svg" xmlns:xlink="http://www.w3.org/1999/xlink">
<g id="graph1" class="graph" transform="scale(1 1) rotate(0) translate(4 1038)">
<title>models_diagram</title>
<polygon fill="white" stroke="white" points="-4,5 -4,-1038 1055,-1038 1055,5 -4,5"/>
<!-- _diagram_info -->
<g id="node1" class="node"><title>_diagram_info</title>
<text text-anchor="start" x="139.5" y="-997.6" font-family="Times New Roman,serif" font-size="13.00">Models diagram</text>
<text text-anchor="start" x="139.5" y="-983.6" font-family="Times New Roman,serif" font-size="13.00">Date: Jul 05 2012 &#45; 00:52</text>
<text text-anchor="start" x="139.5" y="-969.6" font-family="Times New Roman,serif" font-size="13.00">Migration version: 20120702140159</text>
<text text-anchor="start" x="139.5" y="-955.6" font-family="Times New Roman,serif" font-size="13.00">Generated by RailRoady 1.0.7</text>
<text text-anchor="start" x="139.5" y="-941.6" font-family="Times New Roman,serif" font-size="13.00">http://railroady.prestonlee.com</text>
</g>
<!-- Assignment -->
<g id="node2" class="node"><title>Assignment</title>
<polyline fill="none" stroke="black" points="532,-60.5 640,-60.5 "/>
<path fill="none" stroke="black" d="M640,-60.5C646,-60.5 652,-66.5 652,-72.5"/>
<polyline fill="none" stroke="black" points="652,-72.5 652,-109.5 "/>
<path fill="none" stroke="black" d="M652,-109.5C652,-115.5 646,-121.5 640,-121.5"/>
<polyline fill="none" stroke="black" points="640,-121.5 532,-121.5 "/>
<path fill="none" stroke="black" d="M532,-121.5C526,-121.5 520,-115.5 520,-109.5"/>
<polyline fill="none" stroke="black" points="520,-109.5 520,-72.5 "/>
<path fill="none" stroke="black" d="M520,-72.5C520,-66.5 526,-60.5 532,-60.5"/>
<text text-anchor="middle" x="586" y="-106.3" font-family="Times New Roman,serif" font-size="14.00">Assignment</text>
<polyline fill="none" stroke="black" points="520,-98.5 652,-98.5 "/>
<text text-anchor="start" x="528" y="-83.3" font-family="Times New Roman,serif" font-size="14.00">created_at :datetime</text>
<text text-anchor="start" x="528" y="-68.3" font-family="Times New Roman,serif" font-size="14.00">updated_at :datetime</text>
</g>
<!-- Defaultphase -->
<g id="node3" class="node"><title>Defaultphase</title>
<polyline fill="none" stroke="black" points="867,-927.5 975,-927.5 "/>
<path fill="none" stroke="black" d="M975,-927.5C981,-927.5 987,-933.5 987,-939.5"/>
<polyline fill="none" stroke="black" points="987,-939.5 987,-1006.5 "/>
<path fill="none" stroke="black" d="M987,-1006.5C987,-1012.5 981,-1018.5 975,-1018.5"/>
<polyline fill="none" stroke="black" points="975,-1018.5 867,-1018.5 "/>
<path fill="none" stroke="black" d="M867,-1018.5C861,-1018.5 855,-1012.5 855,-1006.5"/>
<polyline fill="none" stroke="black" points="855,-1006.5 855,-939.5 "/>
<path fill="none" stroke="black" d="M855,-939.5C855,-933.5 861,-927.5 867,-927.5"/>
<text text-anchor="middle" x="921" y="-1003.3" font-family="Times New Roman,serif" font-size="14.00">Defaultphase</text>
<polyline fill="none" stroke="black" points="855,-995.5 987,-995.5 "/>
<text text-anchor="start" x="863" y="-980.3" font-family="Times New Roman,serif" font-size="14.00">name :string</text>
<text text-anchor="start" x="863" y="-965.3" font-family="Times New Roman,serif" font-size="14.00">created_at :datetime</text>
<text text-anchor="start" x="863" y="-950.3" font-family="Times New Roman,serif" font-size="14.00">updated_at :datetime</text>
<text text-anchor="start" x="863" y="-935.3" font-family="Times New Roman,serif" font-size="14.00">content :string</text>
</g>
<!-- Defaultphase&#45;&gt;Defaultphase -->
<g id="edge2" class="edge"><title>Defaultphase&#45;&gt;Defaultphase</title>
<path fill="none" stroke="#5540d9" d="M995.239,-984.495C1001.26,-981.998 1005,-978.166 1005,-973 1005,-968.283 1001.89,-964.679 996.758,-962.187"/>
<ellipse fill="none" stroke="#5540d9" cx="991.045" cy="-985.705" rx="4.00001" ry="4.00001"/>
<polygon fill="#5540d9" stroke="#5540d9" points="996.742,-962.182 988.549,-954.893 991.972,-960.684 987.201,-959.187 987.201,-959.187 987.201,-959.187 991.972,-960.684 985.853,-963.48 996.742,-962.182 996.742,-962.182"/>
<text text-anchor="middle" x="1027.5" y="-969.3" font-family="Times New Roman,serif" font-size="14.00">children</text>
</g>
<!-- DefaultPolicy -->
<g id="node4" class="node"><title>DefaultPolicy</title>
<polyline fill="none" stroke="black" points="717,-920 825,-920 "/>
<path fill="none" stroke="black" d="M825,-920C831,-920 837,-926 837,-932"/>
<polyline fill="none" stroke="black" points="837,-932 837,-1014 "/>
<path fill="none" stroke="black" d="M837,-1014C837,-1020 831,-1026 825,-1026"/>
<polyline fill="none" stroke="black" points="825,-1026 717,-1026 "/>
<path fill="none" stroke="black" d="M717,-1026C711,-1026 705,-1020 705,-1014"/>
<polyline fill="none" stroke="black" points="705,-1014 705,-932 "/>
<path fill="none" stroke="black" d="M705,-932C705,-926 711,-920 717,-920"/>
<text text-anchor="middle" x="771" y="-1010.8" font-family="Times New Roman,serif" font-size="14.00">DefaultPolicy</text>
<polyline fill="none" stroke="black" points="705,-1003 837,-1003 "/>
<text text-anchor="start" x="713" y="-987.8" font-family="Times New Roman,serif" font-size="14.00">name :string</text>
<text text-anchor="start" x="713" y="-972.8" font-family="Times New Roman,serif" font-size="14.00">sample :string</text>
<text text-anchor="start" x="713" y="-957.8" font-family="Times New Roman,serif" font-size="14.00">hint :string</text>
<text text-anchor="start" x="713" y="-942.8" font-family="Times New Roman,serif" font-size="14.00">created_at :datetime</text>
<text text-anchor="start" x="713" y="-927.8" font-family="Times New Roman,serif" font-size="14.00">updated_at :datetime</text>
</g>
<!-- Policy -->
<g id="node9" class="node"><title>Policy</title>
<polyline fill="none" stroke="black" points="717,-714.5 825,-714.5 "/>
<path fill="none" stroke="black" d="M825,-714.5C831,-714.5 837,-720.5 837,-726.5"/>
<polyline fill="none" stroke="black" points="837,-726.5 837,-823.5 "/>
<path fill="none" stroke="black" d="M837,-823.5C837,-829.5 831,-835.5 825,-835.5"/>
<polyline fill="none" stroke="black" points="825,-835.5 717,-835.5 "/>
<path fill="none" stroke="black" d="M717,-835.5C711,-835.5 705,-829.5 705,-823.5"/>
<polyline fill="none" stroke="black" points="705,-823.5 705,-726.5 "/>
<path fill="none" stroke="black" d="M705,-726.5C705,-720.5 711,-714.5 717,-714.5"/>
<text text-anchor="middle" x="771" y="-820.3" font-family="Times New Roman,serif" font-size="14.00">Policy</text>
<polyline fill="none" stroke="black" points="705,-812.5 837,-812.5 "/>
<text text-anchor="start" x="713" y="-797.3" font-family="Times New Roman,serif" font-size="14.00">name :string</text>
<text text-anchor="start" x="713" y="-782.3" font-family="Times New Roman,serif" font-size="14.00">description :string</text>
<text text-anchor="start" x="713" y="-767.3" font-family="Times New Roman,serif" font-size="14.00">created_at :datetime</text>
<text text-anchor="start" x="713" y="-752.3" font-family="Times New Roman,serif" font-size="14.00">updated_at :datetime</text>
<text text-anchor="start" x="713" y="-737.3" font-family="Times New Roman,serif" font-size="14.00">sample :string</text>
<text text-anchor="start" x="713" y="-722.3" font-family="Times New Roman,serif" font-size="14.00">hint :string</text>
</g>
<!-- DefaultPolicy&#45;&gt;Policy -->
<g id="edge4" class="edge"><title>DefaultPolicy&#45;&gt;Policy</title>
<path fill="none" stroke="#b86ca6" d="M771,-911.915C771,-890.976 771,-867.306 771,-845.655"/>
<ellipse fill="none" stroke="#b86ca6" cx="771" cy="-915.99" rx="4" ry="4"/>
<polygon fill="#b86ca6" stroke="#b86ca6" points="771,-845.539 775.5,-835.539 771,-840.539 771,-835.539 771,-835.539 771,-835.539 771,-840.539 766.5,-835.539 771,-845.539 771,-845.539"/>
</g>
<!-- Delegation -->
<g id="node5" class="node"><title>Delegation</title>
<polyline fill="none" stroke="black" points="508,-410.5 616,-410.5 "/>
<path fill="none" stroke="black" d="M616,-410.5C622,-410.5 628,-416.5 628,-422.5"/>
<polyline fill="none" stroke="black" points="628,-422.5 628,-489.5 "/>
<path fill="none" stroke="black" d="M628,-489.5C628,-495.5 622,-501.5 616,-501.5"/>
<polyline fill="none" stroke="black" points="616,-501.5 508,-501.5 "/>
<path fill="none" stroke="black" d="M508,-501.5C502,-501.5 496,-495.5 496,-489.5"/>
<polyline fill="none" stroke="black" points="496,-489.5 496,-422.5 "/>
<path fill="none" stroke="black" d="M496,-422.5C496,-416.5 502,-410.5 508,-410.5"/>
<text text-anchor="middle" x="562" y="-486.3" font-family="Times New Roman,serif" font-size="14.00">Delegation</text>
<polyline fill="none" stroke="black" points="496,-478.5 628,-478.5 "/>
<text text-anchor="start" x="504" y="-463.3" font-family="Times New Roman,serif" font-size="14.00">role :string</text>
<text text-anchor="start" x="504" y="-448.3" font-family="Times New Roman,serif" font-size="14.00">responsibility :string</text>
<text text-anchor="start" x="504" y="-433.3" font-family="Times New Roman,serif" font-size="14.00">created_at :datetime</text>
<text text-anchor="start" x="504" y="-418.3" font-family="Times New Roman,serif" font-size="14.00">updated_at :datetime</text>
</g>
<!-- Delegation&#45;&gt;Assignment -->
<g id="edge6" class="edge"><title>Delegation&#45;&gt;Assignment</title>
<path fill="none" stroke="#7a2a88" d="M574.976,-402.505C577.011,-392.437 578.827,-381.937 580,-372 590.046,-286.894 589.103,-186.255 587.541,-131.811"/>
<ellipse fill="none" stroke="#7a2a88" cx="574.126" cy="-406.552" rx="4.00001" ry="4.00001"/>
<polygon fill="#7a2a88" stroke="#7a2a88" points="587.533,-131.552 591.721,-121.418 587.378,-126.555 587.223,-121.557 587.223,-121.557 587.223,-121.557 587.378,-126.555 582.725,-121.696 587.533,-131.552 587.533,-131.552"/>
</g>
<!-- Task -->
<g id="node12" class="node"><title>Task</title>
<polyline fill="none" stroke="black" points="451,-220.5 559,-220.5 "/>
<path fill="none" stroke="black" d="M559,-220.5C565,-220.5 571,-226.5 571,-232.5"/>
<polyline fill="none" stroke="black" points="571,-232.5 571,-359.5 "/>
<path fill="none" stroke="black" d="M571,-359.5C571,-365.5 565,-371.5 559,-371.5"/>
<polyline fill="none" stroke="black" points="559,-371.5 451,-371.5 "/>
<path fill="none" stroke="black" d="M451,-371.5C445,-371.5 439,-365.5 439,-359.5"/>
<polyline fill="none" stroke="black" points="439,-359.5 439,-232.5 "/>
<path fill="none" stroke="black" d="M439,-232.5C439,-226.5 445,-220.5 451,-220.5"/>
<text text-anchor="middle" x="505" y="-356.3" font-family="Times New Roman,serif" font-size="14.00">Task</text>
<polyline fill="none" stroke="black" points="439,-348.5 571,-348.5 "/>
<text text-anchor="start" x="447" y="-333.3" font-family="Times New Roman,serif" font-size="14.00">name :string</text>
<text text-anchor="start" x="447" y="-318.3" font-family="Times New Roman,serif" font-size="14.00">status :string</text>
<text text-anchor="start" x="447" y="-303.3" font-family="Times New Roman,serif" font-size="14.00">priority :string</text>
<text text-anchor="start" x="447" y="-288.3" font-family="Times New Roman,serif" font-size="14.00">end_at :date</text>
<text text-anchor="start" x="447" y="-273.3" font-family="Times New Roman,serif" font-size="14.00">created_at :datetime</text>
<text text-anchor="start" x="447" y="-258.3" font-family="Times New Roman,serif" font-size="14.00">updated_at :datetime</text>
<text text-anchor="start" x="447" y="-243.3" font-family="Times New Roman,serif" font-size="14.00">start_at :datetime</text>
<text text-anchor="start" x="447" y="-228.3" font-family="Times New Roman,serif" font-size="14.00">site :string</text>
</g>
<!-- Delegation&#45;&gt;Task -->
<g id="edge8" class="edge"><title>Delegation&#45;&gt;Task</title>
<path fill="none" stroke="#1ce299" d="M542.373,-400.596C540.103,-394.302 537.749,-387.778 535.378,-381.205"/>
<polygon fill="#1ce299" stroke="#1ce299" points="542.425,-400.74 541.586,-411.673 544.122,-405.443 545.819,-410.146 545.819,-410.146 545.819,-410.146 544.122,-405.443 550.052,-408.619 542.425,-400.74 542.425,-400.74"/>
<polygon fill="#1ce299" stroke="#1ce299" points="535.292,-380.968 536.132,-370.034 533.595,-376.265 531.899,-371.561 531.899,-371.561 531.899,-371.561 533.595,-376.265 527.666,-373.088 535.292,-380.968 535.292,-380.968"/>
</g>
<!-- Event -->
<g id="node6" class="node"><title>Event</title>
<polyline fill="none" stroke="black" points="12,-722 120,-722 "/>
<path fill="none" stroke="black" d="M120,-722C126,-722 132,-728 132,-734"/>
<polyline fill="none" stroke="black" points="132,-734 132,-816 "/>
<path fill="none" stroke="black" d="M132,-816C132,-822 126,-828 120,-828"/>
<polyline fill="none" stroke="black" points="120,-828 12,-828 "/>
<path fill="none" stroke="black" d="M12,-828C6,-828 0,-822 0,-816"/>
<polyline fill="none" stroke="black" points="0,-816 0,-734 "/>
<path fill="none" stroke="black" d="M0,-734C0,-728 6,-722 12,-722"/>
<text text-anchor="middle" x="66" y="-812.8" font-family="Times New Roman,serif" font-size="14.00">Event</text>
<polyline fill="none" stroke="black" points="0,-805 132,-805 "/>
<text text-anchor="start" x="8" y="-789.8" font-family="Times New Roman,serif" font-size="14.00">name :string</text>
<text text-anchor="start" x="8" y="-774.8" font-family="Times New Roman,serif" font-size="14.00">start_at :date</text>
<text text-anchor="start" x="8" y="-759.8" font-family="Times New Roman,serif" font-size="14.00">created_at :datetime</text>
<text text-anchor="start" x="8" y="-744.8" font-family="Times New Roman,serif" font-size="14.00">updated_at :datetime</text>
<text text-anchor="start" x="8" y="-729.8" font-family="Times New Roman,serif" font-size="14.00">end_at :date</text>
</g>
<!-- Metum -->
<g id="node7" class="node"><title>Metum</title>
<polyline fill="none" stroke="black" points="191,-521 299,-521 "/>
<path fill="none" stroke="black" d="M299,-521C305,-521 311,-527 311,-533"/>
<polyline fill="none" stroke="black" points="311,-533 311,-645 "/>
<path fill="none" stroke="black" d="M311,-645C311,-651 305,-657 299,-657"/>
<polyline fill="none" stroke="black" points="299,-657 191,-657 "/>
<path fill="none" stroke="black" d="M191,-657C185,-657 179,-651 179,-645"/>
<polyline fill="none" stroke="black" points="179,-645 179,-533 "/>
<path fill="none" stroke="black" d="M179,-533C179,-527 185,-521 191,-521"/>
<text text-anchor="middle" x="245" y="-641.8" font-family="Times New Roman,serif" font-size="14.00">Metum</text>
<polyline fill="none" stroke="black" points="179,-634 311,-634 "/>
<text text-anchor="start" x="187" y="-618.8" font-family="Times New Roman,serif" font-size="14.00">stream_xml :string</text>
<text text-anchor="start" x="187" y="-603.8" font-family="Times New Roman,serif" font-size="14.00">structure_xml :string</text>
<text text-anchor="start" x="187" y="-588.8" font-family="Times New Roman,serif" font-size="14.00">space_xml :string</text>
<text text-anchor="start" x="187" y="-573.8" font-family="Times New Roman,serif" font-size="14.00">scenario_xml :string</text>
<text text-anchor="start" x="187" y="-558.8" font-family="Times New Roman,serif" font-size="14.00">society_xml :string</text>
<text text-anchor="start" x="187" y="-543.8" font-family="Times New Roman,serif" font-size="14.00">created_at :datetime</text>
<text text-anchor="start" x="187" y="-528.8" font-family="Times New Roman,serif" font-size="14.00">updated_at :datetime</text>
</g>
<!-- Resource -->
<g id="node11" class="node"><title>Resource</title>
<polyline fill="none" stroke="black" points="345,-0.5 477,-0.5 "/>
<path fill="none" stroke="black" d="M477,-0.5C483,-0.5 489,-6.5 489,-12.5"/>
<polyline fill="none" stroke="black" points="489,-12.5 489,-169.5 "/>
<path fill="none" stroke="black" d="M489,-169.5C489,-175.5 483,-181.5 477,-181.5"/>
<polyline fill="none" stroke="black" points="477,-181.5 345,-181.5 "/>
<path fill="none" stroke="black" d="M345,-181.5C339,-181.5 333,-175.5 333,-169.5"/>
<polyline fill="none" stroke="black" points="333,-169.5 333,-12.5 "/>
<path fill="none" stroke="black" d="M333,-12.5C333,-6.5 339,-0.5 345,-0.5"/>
<text text-anchor="middle" x="411" y="-166.3" font-family="Times New Roman,serif" font-size="14.00">Resource</text>
<polyline fill="none" stroke="black" points="333,-158.5 489,-158.5 "/>
<text text-anchor="start" x="341" y="-143.3" font-family="Times New Roman,serif" font-size="14.00">name :string</text>
<text text-anchor="start" x="341" y="-128.3" font-family="Times New Roman,serif" font-size="14.00">created_at :datetime</text>
<text text-anchor="start" x="341" y="-113.3" font-family="Times New Roman,serif" font-size="14.00">updated_at :datetime</text>
<text text-anchor="start" x="341" y="-98.3" font-family="Times New Roman,serif" font-size="14.00">file_file_name :string</text>
<text text-anchor="start" x="341" y="-83.3" font-family="Times New Roman,serif" font-size="14.00">file_content_type :string</text>
<text text-anchor="start" x="341" y="-68.3" font-family="Times New Roman,serif" font-size="14.00">file_file_size :integer</text>
<text text-anchor="start" x="341" y="-53.3" font-family="Times New Roman,serif" font-size="14.00">file_updated_at :datetime</text>
<text text-anchor="start" x="341" y="-38.3" font-family="Times New Roman,serif" font-size="14.00">content :text</text>
<text text-anchor="start" x="341" y="-23.3" font-family="Times New Roman,serif" font-size="14.00">resourceable_type :string</text>
<text text-anchor="start" x="341" y="-8.3" font-family="Times New Roman,serif" font-size="14.00">resourcer :string</text>
</g>
<!-- Metum&#45;&gt;Resource -->
<g id="edge10" class="edge"><title>Metum&#45;&gt;Resource</title>
<path fill="none" stroke="#1a63c0" d="M270.021,-513.239C298.751,-427.394 346.001,-286.214 377.792,-191.225"/>
<ellipse fill="none" stroke="#1a63c0" cx="268.743" cy="-517.056" rx="4.00001" ry="4.00001"/>
<polygon fill="#1a63c0" stroke="#1a63c0" points="377.837,-191.089 385.278,-183.034 379.424,-186.348 381.011,-181.606 381.011,-181.606 381.011,-181.606 379.424,-186.348 376.744,-180.178 377.837,-191.089 377.837,-191.089"/>
</g>
<!-- Phase -->
<g id="node8" class="node"><title>Phase</title>
<polyline fill="none" stroke="black" points="200,-692 308,-692 "/>
<path fill="none" stroke="black" d="M308,-692C314,-692 320,-698 320,-704"/>
<polyline fill="none" stroke="black" points="320,-704 320,-846 "/>
<path fill="none" stroke="black" d="M320,-846C320,-852 314,-858 308,-858"/>
<polyline fill="none" stroke="black" points="308,-858 200,-858 "/>
<path fill="none" stroke="black" d="M200,-858C194,-858 188,-852 188,-846"/>
<polyline fill="none" stroke="black" points="188,-846 188,-704 "/>
<path fill="none" stroke="black" d="M188,-704C188,-698 194,-692 200,-692"/>
<text text-anchor="middle" x="254" y="-842.8" font-family="Times New Roman,serif" font-size="14.00">Phase</text>
<polyline fill="none" stroke="black" points="188,-835 320,-835 "/>
<text text-anchor="start" x="196" y="-819.8" font-family="Times New Roman,serif" font-size="14.00">name :string</text>
<text text-anchor="start" x="196" y="-804.8" font-family="Times New Roman,serif" font-size="14.00">content :string</text>
<text text-anchor="start" x="196" y="-789.8" font-family="Times New Roman,serif" font-size="14.00">created_at :datetime</text>
<text text-anchor="start" x="196" y="-774.8" font-family="Times New Roman,serif" font-size="14.00">updated_at :datetime</text>
<text text-anchor="start" x="196" y="-759.8" font-family="Times New Roman,serif" font-size="14.00">lft :integer</text>
<text text-anchor="start" x="196" y="-744.8" font-family="Times New Roman,serif" font-size="14.00">rgt :integer</text>
<text text-anchor="start" x="196" y="-729.8" font-family="Times New Roman,serif" font-size="14.00">start :datetime</text>
<text text-anchor="start" x="196" y="-714.8" font-family="Times New Roman,serif" font-size="14.00">end :datetime</text>
<text text-anchor="start" x="196" y="-699.8" font-family="Times New Roman,serif" font-size="14.00">site :string</text>
</g>
<!-- Phase&#45;&gt;Phase -->
<g id="edge12" class="edge"><title>Phase&#45;&gt;Phase</title>
<path fill="none" stroke="#58cab8" d="M327.843,-792.192C334.1,-788.516 338,-782.786 338,-775 338,-767.877 334.735,-762.474 329.388,-758.791"/>
<ellipse fill="none" stroke="#58cab8" cx="323.894" cy="-793.837" rx="4.00001" ry="4.00001"/>
<polygon fill="#58cab8" stroke="#58cab8" points="329.309,-758.755 322.06,-750.527 324.755,-756.69 320.201,-754.625 320.201,-754.625 320.201,-754.625 324.755,-756.69 318.343,-758.723 329.309,-758.755 329.309,-758.755"/>
<text text-anchor="middle" x="360.5" y="-771.3" font-family="Times New Roman,serif" font-size="14.00">children</text>
</g>
<!-- Project -->
<g id="node10" class="node"><title>Project</title>
<polyline fill="none" stroke="black" points="370.5,-912.5 489.5,-912.5 "/>
<path fill="none" stroke="black" d="M489.5,-912.5C495.5,-912.5 501.5,-918.5 501.5,-924.5"/>
<polyline fill="none" stroke="black" points="501.5,-924.5 501.5,-1021.5 "/>
<path fill="none" stroke="black" d="M501.5,-1021.5C501.5,-1027.5 495.5,-1033.5 489.5,-1033.5"/>
<polyline fill="none" stroke="black" points="489.5,-1033.5 370.5,-1033.5 "/>
<path fill="none" stroke="black" d="M370.5,-1033.5C364.5,-1033.5 358.5,-1027.5 358.5,-1021.5"/>
<polyline fill="none" stroke="black" points="358.5,-1021.5 358.5,-924.5 "/>
<path fill="none" stroke="black" d="M358.5,-924.5C358.5,-918.5 364.5,-912.5 370.5,-912.5"/>
<text text-anchor="middle" x="430" y="-1018.3" font-family="Times New Roman,serif" font-size="14.00">Project</text>
<polyline fill="none" stroke="black" points="358.5,-1010.5 501.5,-1010.5 "/>
<text text-anchor="start" x="366.5" y="-995.3" font-family="Times New Roman,serif" font-size="14.00">name :string</text>
<text text-anchor="start" x="366.5" y="-980.3" font-family="Times New Roman,serif" font-size="14.00">time :string</text>
<text text-anchor="start" x="366.5" y="-965.3" font-family="Times New Roman,serif" font-size="14.00">money :string</text>
<text text-anchor="start" x="366.5" y="-950.3" font-family="Times New Roman,serif" font-size="14.00">funding_agency :string</text>
<text text-anchor="start" x="366.5" y="-935.3" font-family="Times New Roman,serif" font-size="14.00">created_at :datetime</text>
<text text-anchor="start" x="366.5" y="-920.3" font-family="Times New Roman,serif" font-size="14.00">updated_at :datetime</text>
</g>
<!-- Project&#45;&gt;Delegation -->
<g id="edge14" class="edge"><title>Project&#45;&gt;Delegation</title>
<path fill="none" stroke="#8b4f0d" d="M459.507,-904.611C460.754,-901.046 461.929,-897.495 463,-894 491.948,-799.582 484.203,-772.32 506,-676 518.763,-619.598 535.388,-555.567 547.199,-511.377"/>
<ellipse fill="none" stroke="#8b4f0d" cx="458.036" cy="-908.657" rx="4.00001" ry="4.00001"/>
<polygon fill="#8b4f0d" stroke="#8b4f0d" points="547.203,-511.362 554.139,-502.868 548.498,-506.532 549.793,-501.703 549.793,-501.703 549.793,-501.703 548.498,-506.532 545.446,-500.537 547.203,-511.362 547.203,-511.362"/>
</g>
<!-- Project&#45;&gt;Event -->
<g id="edge24" class="edge"><title>Project&#45;&gt;Event</title>
<path fill="none" stroke="#47139d" d="M350.747,-912.68C350.165,-912.448 349.583,-912.221 349,-912 306.663,-895.919 185.035,-916.962 146,-894 123.594,-880.82 106.107,-858.593 93.2747,-836.96"/>
<ellipse fill="none" stroke="#47139d" cx="354.602" cy="-914.371" rx="4.00002" ry="4.00002"/>
<polygon fill="#47139d" stroke="#47139d" points="93.1699,-836.775 92.1489,-825.857 90.7024,-832.427 88.235,-828.078 88.235,-828.078 88.235,-828.078 90.7024,-832.427 84.3211,-830.299 93.1699,-836.775 93.1699,-836.775"/>
</g>
<!-- Project&#45;&gt;Metum -->
<g id="edge22" class="edge"><title>Project&#45;&gt;Metum</title>
<path fill="none" stroke="#ae997e" d="M350.701,-912.791C350.134,-912.523 349.567,-912.259 349,-912 278.587,-879.815 227.406,-934.421 179,-874 123.979,-805.322 150.71,-759.329 179,-676 180.327,-672.09 181.912,-668.219 183.7,-664.409"/>
<ellipse fill="none" stroke="#ae997e" cx="354.477" cy="-914.695" rx="4.00002" ry="4.00002"/>
<ellipse fill="#ae997e" stroke="#ae997e" cx="185.565" cy="-660.729" rx="4.00002" ry="4.00002"/>
</g>
<!-- Project&#45;&gt;Phase -->
<g id="edge26" class="edge"><title>Project&#45;&gt;Phase</title>
<path fill="none" stroke="#5b90e8" d="M370.989,-906.283C356.796,-890.478 341.472,-873.412 326.736,-857.001"/>
<ellipse fill="none" stroke="#5b90e8" cx="373.805" cy="-909.419" rx="4.00002" ry="4.00002"/>
<polygon fill="#5b90e8" stroke="#5b90e8" points="326.694,-856.955 323.361,-846.508 323.354,-853.235 320.013,-849.515 320.013,-849.515 320.013,-849.515 323.354,-853.235 316.665,-852.521 326.694,-856.955 326.694,-856.955"/>
</g>
<!-- Project&#45;&gt;Policy -->
<g id="edge20" class="edge"><title>Project&#45;&gt;Policy</title>
<path fill="none" stroke="#e94299" d="M509.43,-955.254C565.512,-940.593 640.29,-915.072 696,-874 707.559,-865.478 718.207,-854.7 727.629,-843.431"/>
<ellipse fill="none" stroke="#e94299" cx="505.519" cy="-956.257" rx="4.00001" ry="4.00001"/>
<polygon fill="#e94299" stroke="#e94299" points="727.682,-843.365 737.457,-838.395 730.817,-839.469 733.951,-835.574 733.951,-835.574 733.951,-835.574 730.817,-839.469 730.445,-832.753 727.682,-843.365 727.682,-843.365"/>
</g>
<!-- Project&#45;&gt;Resource -->
<g id="edge28" class="edge"><title>Project&#45;&gt;Resource</title>
<path fill="none" stroke="#f00163" d="M420.119,-903.744C415.499,-866.144 411,-818.59 411,-776 411,-776 411,-776 411,-295 411,-261.384 411,-224.637 411,-191.759"/>
<ellipse fill="none" stroke="#f00163" cx="420.669" cy="-908.129" rx="4.00001" ry="4.00001"/>
<polygon fill="#f00163" stroke="#f00163" points="411,-191.687 415.5,-181.687 411,-186.687 411,-181.687 411,-181.687 411,-181.687 411,-186.687 406.5,-181.687 411,-191.687 411,-191.687"/>
</g>
<!-- Project&#45;&gt;Task -->
<g id="edge18" class="edge"><title>Project&#45;&gt;Task</title>
<path fill="none" stroke="#ea982d" d="M435.609,-904.35C444.657,-798.639 463.822,-587.948 487,-410 488.2,-400.789 489.562,-391.173 490.987,-381.608"/>
<ellipse fill="none" stroke="#ea982d" cx="435.263" cy="-908.411" rx="4" ry="4"/>
<polygon fill="#ea982d" stroke="#ea982d" points="490.993,-381.564 496.939,-372.35 491.742,-376.62 492.49,-371.677 492.49,-371.677 492.49,-371.677 491.742,-376.62 488.041,-371.003 490.993,-381.564 490.993,-381.564"/>
</g>
<!-- User -->
<g id="node13" class="node"><title>User</title>
<polyline fill="none" stroke="black" points="527,-677 675,-677 "/>
<path fill="none" stroke="black" d="M675,-677C681,-677 687,-683 687,-689"/>
<polyline fill="none" stroke="black" points="687,-689 687,-861 "/>
<path fill="none" stroke="black" d="M687,-861C687,-867 681,-873 675,-873"/>
<polyline fill="none" stroke="black" points="675,-873 527,-873 "/>
<path fill="none" stroke="black" d="M527,-873C521,-873 515,-867 515,-861"/>
<polyline fill="none" stroke="black" points="515,-861 515,-689 "/>
<path fill="none" stroke="black" d="M515,-689C515,-683 521,-677 527,-677"/>
<text text-anchor="middle" x="601" y="-857.8" font-family="Times New Roman,serif" font-size="14.00">User</text>
<polyline fill="none" stroke="black" points="515,-850 687,-850 "/>
<text text-anchor="start" x="523" y="-834.8" font-family="Times New Roman,serif" font-size="14.00">name :string</text>
<text text-anchor="start" x="523" y="-819.8" font-family="Times New Roman,serif" font-size="14.00">email :string</text>
<text text-anchor="start" x="523" y="-804.8" font-family="Times New Roman,serif" font-size="14.00">created_at :datetime</text>
<text text-anchor="start" x="523" y="-789.8" font-family="Times New Roman,serif" font-size="14.00">updated_at :datetime</text>
<text text-anchor="start" x="523" y="-774.8" font-family="Times New Roman,serif" font-size="14.00">encrypted_password :string</text>
<text text-anchor="start" x="523" y="-759.8" font-family="Times New Roman,serif" font-size="14.00">salt :string</text>
<text text-anchor="start" x="523" y="-744.8" font-family="Times New Roman,serif" font-size="14.00">admin :boolean</text>
<text text-anchor="start" x="523" y="-729.8" font-family="Times New Roman,serif" font-size="14.00">role :string</text>
<text text-anchor="start" x="523" y="-714.8" font-family="Times New Roman,serif" font-size="14.00">responsibilities :string</text>
<text text-anchor="start" x="523" y="-699.8" font-family="Times New Roman,serif" font-size="14.00">webpage :string</text>
<text text-anchor="start" x="523" y="-684.8" font-family="Times New Roman,serif" font-size="14.00">number :string</text>
</g>
<!-- Project&#45;&gt;User -->
<g id="edge16" class="edge"><title>Project&#45;&gt;User</title>
<path fill="none" stroke="#420d1c" d="M491.774,-904.428C494.906,-900.912 497.996,-897.42 501,-894 504.803,-889.67 508.671,-885.237 512.567,-880.748"/>
<polygon fill="#420d1c" stroke="#420d1c" points="491.537,-904.694 481.517,-909.15 488.204,-908.422 484.872,-912.149 484.872,-912.149 484.872,-912.149 488.204,-908.422 488.226,-915.148 491.537,-904.694 491.537,-904.694"/>
<polygon fill="#420d1c" stroke="#420d1c" points="512.599,-880.712 522.546,-876.095 515.871,-876.931 519.143,-873.15 519.143,-873.15 519.143,-873.15 515.871,-876.931 515.74,-870.205 512.599,-880.712 512.599,-880.712"/>
</g>
<!-- Task&#45;&gt;Assignment -->
<g id="edge30" class="edge"><title>Task&#45;&gt;Assignment</title>
<path fill="none" stroke="#331b72" d="M537.886,-212.583C549.137,-184.385 561.202,-154.148 570.436,-131.006"/>
<ellipse fill="none" stroke="#331b72" cx="536.299" cy="-216.56" rx="4.00001" ry="4.00001"/>
<polygon fill="#331b72" stroke="#331b72" points="570.503,-130.838 578.389,-123.217 572.356,-126.194 574.209,-121.55 574.209,-121.55 574.209,-121.55 572.356,-126.194 570.03,-119.882 570.503,-130.838 570.503,-130.838"/>
</g>
<!-- Task&#45;&gt;Resource -->
<g id="edge32" class="edge"><title>Task&#45;&gt;Resource</title>
<path fill="none" stroke="#2577ea" d="M466.965,-212.861C463.626,-205.65 460.224,-198.303 456.83,-190.973"/>
<ellipse fill="none" stroke="#2577ea" cx="468.718" cy="-216.645" rx="4.00002" ry="4.00002"/>
<polygon fill="#2577ea" stroke="#2577ea" points="456.743,-190.784 456.624,-179.819 454.642,-186.247 452.541,-181.71 452.541,-181.71 452.541,-181.71 454.642,-186.247 448.457,-183.601 456.743,-190.784 456.743,-190.784"/>
</g>
<!-- User&#45;&gt;Delegation -->
<g id="edge34" class="edge"><title>User&#45;&gt;Delegation</title>
<path fill="none" stroke="#7d8f37" d="M588.056,-668.786C581.581,-616.158 574.015,-554.661 568.709,-511.536"/>
<ellipse fill="none" stroke="#7d8f37" cx="588.545" cy="-672.765" rx="4.00001" ry="4.00001"/>
<polygon fill="#7d8f37" stroke="#7d8f37" points="568.7,-511.457 571.945,-500.983 568.089,-506.495 567.479,-501.532 567.479,-501.532 567.479,-501.532 568.089,-506.495 563.012,-502.082 568.7,-511.457 568.7,-511.457"/>
</g>
</g>
</svg>
